<svg width="40" height="40" viewBox="0 0 40 40" fill="none" xmlns="http://www.w3.org/2000/svg">
<g clip-path="url(#clip0_150_195)">
<path d="M37.5 25C37.5025 23.7483 37.1917 22.5159 36.596 21.4151C36.0002 20.3143 35.1384 19.3801 34.0891 18.6976C33.0398 18.0152 31.8364 17.6062 30.5886 17.508C29.3408 17.4098 28.0882 17.6254 26.9451 18.1352C25.8019 18.6451 24.8046 19.4329 24.0439 20.4269C23.2832 21.421 22.7834 22.5896 22.59 23.8262C22.3967 25.0629 22.5159 26.3283 22.9368 27.5071C23.3578 28.6859 24.067 29.7406 25 30.575V40L30 37.6325L35 40V30.575C35.7858 29.8742 36.4148 29.0154 36.8456 28.0546C37.2764 27.0939 37.4994 26.0529 37.5 25ZM32.5 36.05L30 34.8663L27.5 36.05V32.0625C29.1158 32.6447 30.8842 32.6447 32.5 32.0625V36.05ZM30 30C29.0111 30 28.0444 29.7068 27.2221 29.1574C26.3999 28.608 25.759 27.8271 25.3806 26.9134C25.0022 25.9998 24.9031 24.9945 25.0961 24.0246C25.289 23.0547 25.7652 22.1638 26.4645 21.4645C27.1637 20.7652 28.0546 20.289 29.0245 20.0961C29.9944 19.9032 30.9998 20.0022 31.9134 20.3806C32.827 20.7591 33.6079 21.3999 34.1573 22.2222C34.7067 23.0444 35 24.0111 35 25C34.9983 26.3256 34.471 27.5964 33.5337 28.5337C32.5964 29.4711 31.3256 29.9984 30 30Z" fill="#C68E27"/>
<path d="M31.25 6.25H27.5V5C27.498 4.33757 27.234 3.70283 26.7656 3.23442C26.2972 2.76601 25.6624 2.50198 25 2.5H15C14.3376 2.50198 13.7028 2.76601 13.2344 3.23442C12.766 3.70283 12.502 4.33757 12.5 5V6.25H8.75C8.08757 6.25198 7.45283 6.51601 6.98442 6.98442C6.51601 7.45283 6.25198 8.08757 6.25 8.75V35C6.25198 35.6624 6.51601 36.2972 6.98442 36.7656C7.45283 37.234 8.08757 37.498 8.75 37.5H20V35H8.75V8.75H12.5V12.5H27.5V8.75H31.25V15H33.75V8.75C33.748 8.08757 33.484 7.45283 33.0156 6.98442C32.5472 6.51601 31.9124 6.25198 31.25 6.25ZM25 10H15V5H25V10Z" fill="#C68E27"/>
</g>
<defs>
<clipPath id="clip0_150_195">
<rect width="40" height="40" fill="white"/>
</clipPath>
</defs>
</svg>
