<svg width="28" height="28" viewBox="0 0 28 28" fill="none" xmlns="http://www.w3.org/2000/svg">
<rect width="27.52" height="27.52" transform="translate(0.0800781)" fill="white"/>
<path d="M19.5417 7.16783C19.2784 7.0215 18.9889 6.92847 18.6897 6.89405C18.3904 6.85963 18.0873 6.8845 17.7977 6.96724C17.5081 7.04997 17.2376 7.18896 17.0017 7.37625C16.7657 7.56354 16.569 7.79547 16.4228 8.05879L12.1652 15.7208L9.72854 13.2841C9.51699 13.0651 9.26394 12.8904 8.98414 12.7702C8.70434 12.65 8.40341 12.5868 8.09891 12.5841C7.7944 12.5815 7.49241 12.6395 7.21057 12.7548C6.92873 12.8701 6.67267 13.0404 6.45735 13.2557C6.24202 13.4711 6.07173 13.7271 5.95642 14.0089C5.84111 14.2908 5.78309 14.5928 5.78573 14.8973C5.78838 15.2018 5.85164 15.5027 5.97183 15.7825C6.09202 16.0623 6.26674 16.3154 6.48577 16.5269L11.0724 21.1136C11.5059 21.5482 12.0907 21.7867 12.6938 21.7867L13.0115 21.7637C13.363 21.7146 13.6983 21.5845 13.991 21.3837C14.2837 21.183 14.5258 20.917 14.6982 20.6068L20.4315 10.2868C20.5779 10.0235 20.671 9.73408 20.7055 9.43488C20.74 9.13569 20.7152 8.83262 20.6326 8.543C20.55 8.25338 20.4111 7.98287 20.2239 7.74691C20.0368 7.51096 19.8049 7.31419 19.5417 7.16783Z" fill="#248C00"/>
</svg>
