<svg width="34" height="34" viewBox="0 0 34 34" fill="none" xmlns="http://www.w3.org/2000/svg">
<path d="M2.83301 7.08333C2.83301 6.33189 3.13152 5.61122 3.66287 5.07986C4.19422 4.54851 4.91489 4.25 5.66634 4.25H14.1663V29.75H5.66634C4.91489 29.75 4.19422 29.4515 3.66287 28.9201C3.13152 28.3888 2.83301 27.6681 2.83301 26.9167V7.08333ZM19.833 4.25H28.333C29.0845 4.25 29.8051 4.54851 30.3365 5.07986C30.8678 5.61122 31.1663 6.33189 31.1663 7.08333V14.1667H19.833V4.25ZM19.833 19.8333H31.1663V26.9167C31.1663 27.6681 30.8678 28.3888 30.3365 28.9201C29.8051 29.4515 29.0845 29.75 28.333 29.75H19.833V19.8333Z" stroke="#C68E27" stroke-width="2" stroke-linecap="round" stroke-linejoin="round"/>
</svg>
