<svg width="27" height="21" viewBox="0 0 27 21" fill="none" xmlns="http://www.w3.org/2000/svg">
<path d="M10.9646 2.3C10.5955 2.3 10.2793 2.56177 10.2133 2.92189L10.0959 3.56229H6.50909C6.22793 3.56229 6 3.78836 6 4.06721V5.07705C6 5.3559 6.22793 5.58197 6.50909 5.58197H19.4909C19.7721 5.58197 20 5.3559 20 5.07705V4.06721C20 3.78836 19.7721 3.56229 19.4909 3.56229H15.9041L15.7867 2.92189C15.7207 2.56177 15.4045 2.3 15.0354 2.3H10.9646Z" fill="currentColor"/>
<path d="M7.05758 6.87838C7.03674 6.72678 7.15554 6.5918 7.30979 6.5918H18.7538C18.9081 6.5918 19.0269 6.72678 19.0061 6.87838L17.6683 16.6082C17.5823 17.2337 17.0437 17.7 16.4072 17.7H9.65641C9.01995 17.7 8.48134 17.2337 8.39535 16.6082L7.05758 6.87838Z" fill="currentColor"/>
</svg>
