<svg width="29" height="28" viewBox="0 0 29 28" fill="none" xmlns="http://www.w3.org/2000/svg">
<path d="M15.667 3.5C12.8822 3.5 10.2115 4.60625 8.24237 6.57538C6.27324 8.54451 5.16699 11.2152 5.16699 14H1.66699L6.20533 18.5383L6.28699 18.7017L11.0003 14H7.50033C7.50033 9.485 11.152 5.83333 15.667 5.83333C20.182 5.83333 23.8337 9.485 23.8337 14C23.8337 18.515 20.182 22.1667 15.667 22.1667C13.4153 22.1667 11.3737 21.245 9.90366 19.7633L8.24699 21.42C9.21915 22.3979 10.3754 23.1735 11.6489 23.7022C12.9225 24.2308 14.2881 24.502 15.667 24.5C18.4518 24.5 21.1225 23.3938 23.0916 21.4246C25.0607 19.4555 26.167 16.7848 26.167 14C26.167 11.2152 25.0607 8.54451 23.0916 6.57538C21.1225 4.60625 18.4518 3.5 15.667 3.5ZM14.5003 9.33333V15.1667L19.4587 18.1067L20.357 16.6133L16.2503 14.175V9.33333H14.5003Z" fill="currentColor"/>
</svg>
