<svg width="28" height="28" viewBox="0 0 28 28" fill="none" xmlns="http://www.w3.org/2000/svg">
<path d="M8.16667 0H4.66667C3.42899 0 2.24201 0.491665 1.36684 1.36684C0.491665 2.242 0 3.42899 0 4.66667L0 8.16667C0 9.40434 0.491665 10.5913 1.36684 11.4665C2.24201 12.3417 3.42899 12.8333 4.66667 12.8333H8.16667C9.40435 12.8333 10.5913 12.3417 11.4665 11.4665C12.3417 10.5913 12.8333 9.40434 12.8333 8.16667V4.66667C12.8333 3.42899 12.3417 2.242 11.4665 1.36684C10.5913 0.491665 9.40435 0 8.16667 0ZM10.5 8.16667C10.5 8.78551 10.2542 9.379 9.81658 9.81658C9.379 10.2542 8.78551 10.5 8.16667 10.5H4.66667C4.04783 10.5 3.45434 10.2542 3.01675 9.81658C2.57917 9.379 2.33333 8.78551 2.33333 8.16667V4.66667C2.33333 4.04783 2.57917 3.45434 3.01675 3.01675C3.45434 2.57917 4.04783 2.33333 4.66667 2.33333H8.16667C8.78551 2.33333 9.379 2.57917 9.81658 3.01675C10.2542 3.45434 10.5 4.04783 10.5 4.66667V8.16667Z" fill="currentColor"/>
<path d="M23.3337 0H19.8337C18.596 0 17.409 0.491665 16.5338 1.36684C15.6587 2.242 15.167 3.42899 15.167 4.66667V8.16667C15.167 9.40434 15.6587 10.5913 16.5338 11.4665C17.409 12.3417 18.596 12.8333 19.8337 12.8333H23.3337C24.5713 12.8333 25.7583 12.3417 26.6335 11.4665C27.5087 10.5913 28.0003 9.40434 28.0003 8.16667V4.66667C28.0003 3.42899 27.5087 2.242 26.6335 1.36684C25.7583 0.491665 24.5713 0 23.3337 0ZM25.667 8.16667C25.667 8.78551 25.4212 9.379 24.9836 9.81658C24.546 10.2542 23.9525 10.5 23.3337 10.5H19.8337C19.2148 10.5 18.6213 10.2542 18.1837 9.81658C17.7462 9.379 17.5003 8.78551 17.5003 8.16667V4.66667C17.5003 4.04783 17.7462 3.45434 18.1837 3.01675C18.6213 2.57917 19.2148 2.33333 19.8337 2.33333H23.3337C23.9525 2.33333 24.546 2.57917 24.9836 3.01675C25.4212 3.45434 25.667 4.04783 25.667 4.66667V8.16667Z" fill="currentColor"/>
<path d="M8.16667 15.1667H4.66667C3.42899 15.1667 2.24201 15.6584 1.36684 16.5336C0.491665 17.4088 0 18.5957 0 19.8334L0 23.3334C0 24.5711 0.491665 25.7581 1.36684 26.6332C2.24201 27.5084 3.42899 28.0001 4.66667 28.0001H8.16667C9.40435 28.0001 10.5913 27.5084 11.4665 26.6332C12.3417 25.7581 12.8333 24.5711 12.8333 23.3334V19.8334C12.8333 18.5957 12.3417 17.4088 11.4665 16.5336C10.5913 15.6584 9.40435 15.1667 8.16667 15.1667ZM10.5 23.3334C10.5 23.9523 10.2542 24.5457 9.81658 24.9833C9.379 25.4209 8.78551 25.6667 8.16667 25.6667H4.66667C4.04783 25.6667 3.45434 25.4209 3.01675 24.9833C2.57917 24.5457 2.33333 23.9523 2.33333 23.3334V19.8334C2.33333 19.2146 2.57917 18.6211 3.01675 18.1835C3.45434 17.7459 4.04783 17.5001 4.66667 17.5001H8.16667C8.78551 17.5001 9.379 17.7459 9.81658 18.1835C10.2542 18.6211 10.5 19.2146 10.5 19.8334V23.3334Z" fill="currentColor"/>
<path d="M23.3337 15.1667H19.8337C18.596 15.1667 17.409 15.6584 16.5338 16.5336C15.6587 17.4088 15.167 18.5957 15.167 19.8334V23.3334C15.167 24.5711 15.6587 25.7581 16.5338 26.6332C17.409 27.5084 18.596 28.0001 19.8337 28.0001H23.3337C24.5713 28.0001 25.7583 27.5084 26.6335 26.6332C27.5087 25.7581 28.0003 24.5711 28.0003 23.3334V19.8334C28.0003 18.5957 27.5087 17.4088 26.6335 16.5336C25.7583 15.6584 24.5713 15.1667 23.3337 15.1667ZM25.667 23.3334C25.667 23.9523 25.4212 24.5457 24.9836 24.9833C24.546 25.4209 23.9525 25.6667 23.3337 25.6667H19.8337C19.2148 25.6667 18.6213 25.4209 18.1837 24.9833C17.7462 24.5457 17.5003 23.9523 17.5003 23.3334V19.8334C17.5003 19.2146 17.7462 18.6211 18.1837 18.1835C18.6213 17.7459 19.2148 17.5001 19.8337 17.5001H23.3337C23.9525 17.5001 24.546 17.7459 24.9836 18.1835C25.4212 18.6211 25.667 19.2146 25.667 19.8334V23.3334Z" fill="currentColor"/>
</svg>
