<svg width="40" height="40" viewBox="0 0 40 40" fill="none" xmlns="http://www.w3.org/2000/svg">
<path d="M30.0003 5.00008H24.7003C24.0003 3.06675 22.167 1.66675 20.0003 1.66675C17.8337 1.66675 16.0003 3.06675 15.3003 5.00008H10.0003C8.16699 5.00008 6.66699 6.50008 6.66699 8.33341V33.3334C6.66699 35.1667 8.16699 36.6667 10.0003 36.6667H20.1837C19.1964 35.7107 18.394 34.5807 17.817 33.3334H10.0003V8.33341H13.3337V10.0001C13.3337 11.8334 14.8337 13.3334 16.667 13.3334H23.3337C25.167 13.3334 26.667 11.8334 26.667 10.0001V8.33341H30.0003V16.8001C31.1837 16.9667 32.3003 17.3167 33.3337 17.8001V8.33341C33.3337 6.50008 31.8337 5.00008 30.0003 5.00008ZM20.0003 8.33341C19.0837 8.33341 18.3337 7.58341 18.3337 6.66675C18.3337 5.75008 19.0837 5.00008 20.0003 5.00008C20.917 5.00008 21.667 5.75008 21.667 6.66675C21.667 7.58341 20.917 8.33341 20.0003 8.33341ZM28.3337 20.0001C23.7337 20.0001 20.0003 23.7334 20.0003 28.3334C20.0003 32.9334 23.7337 36.6667 28.3337 36.6667C32.9337 36.6667 36.667 32.9334 36.667 28.3334C36.667 23.7334 32.9337 20.0001 28.3337 20.0001ZM30.4837 31.6667L27.7337 28.9167C27.5766 28.7629 27.4868 28.5532 27.4837 28.3334V24.1834C27.4837 23.7167 27.8503 23.3501 28.317 23.3501C28.7837 23.3501 29.1503 23.7167 29.1503 24.1834V28.0001L31.6503 30.5001C31.7282 30.5764 31.7902 30.6674 31.8327 30.7678C31.8752 30.8682 31.8973 30.9761 31.8979 31.0851C31.8984 31.1942 31.8774 31.3022 31.8359 31.4031C31.7944 31.5039 31.7334 31.5956 31.6562 31.6727C31.5791 31.7498 31.4875 31.8108 31.3867 31.8523C31.2858 31.8938 31.1778 31.9148 31.0687 31.9143C30.9597 31.9137 30.8518 31.8916 30.7514 31.8491C30.651 31.8066 30.56 31.7446 30.4837 31.6667Z" fill="#C68E27"/>
</svg>
