<svg width="40" height="40" viewBox="0 0 40 40" fill="none" xmlns="http://www.w3.org/2000/svg">
<path d="M27.542 5.83325H31.667C32.109 5.83325 32.5329 6.00885 32.8455 6.32141C33.1581 6.63397 33.3337 7.05789 33.3337 7.49992V34.9999C33.3337 35.4419 33.1581 35.8659 32.8455 36.1784C32.5329 36.491 32.109 36.6666 31.667 36.6666H8.33366C7.89163 36.6666 7.46771 36.491 7.15515 36.1784C6.84259 35.8659 6.66699 35.4419 6.66699 34.9999V7.49992C6.66699 7.05789 6.84259 6.63397 7.15515 6.32141C7.46771 6.00885 7.89163 5.83325 8.33366 5.83325H14.167V8.33325H25.8337V5.83325H27.542Z" stroke="#C68E27" stroke-width="4" stroke-linejoin="round"/>
<path d="M22.5003 15.8333L15.8337 22.5008H24.1703L17.5003 29.1674M14.167 3.33325H25.8337V8.33325H14.167V3.33325Z" stroke="#C68E27" stroke-width="4" stroke-linecap="round" stroke-linejoin="round"/>
</svg>
