<svg width="50" height="50" viewBox="0 0 50 50" fill="none" xmlns="http://www.w3.org/2000/svg">
<path d="M3.22266 11.7188V24.1844C3.71318 24.3663 4.13184 24.6827 4.46094 25.0322C4.97246 25.5754 5.34316 26.2151 5.68145 26.8137C6.01973 27.4122 6.32695 27.9744 6.59385 28.3221C6.86104 28.6697 6.99395 28.7109 7.03125 28.7109C7.08887 28.7109 7.10742 28.7183 7.26172 28.5352C7.41631 28.3519 7.61035 28.0073 7.8167 27.6167C8.02305 27.2261 8.24209 26.7894 8.58154 26.3866C8.921 25.9839 9.47725 25.5858 10.1562 25.5858C10.8353 25.5858 11.3916 25.9838 11.731 26.3866C12.0704 26.7893 12.2894 27.226 12.4958 27.6166C12.7022 28.0072 12.8962 28.3518 13.0507 28.535C13.205 28.7181 13.2235 28.7107 13.2812 28.7107C13.3388 28.7107 13.3573 28.7181 13.5116 28.535C13.6662 28.3517 13.8603 28.0071 14.0666 27.6165C14.273 27.2259 14.492 26.7892 14.8314 26.3864C15.1709 25.9837 15.7271 25.5856 16.4062 25.5856C17.0852 25.5856 17.6415 25.9836 17.9809 26.3864C18.3203 26.7891 18.5393 27.2258 18.7457 27.6164C18.9521 28.007 19.1461 28.3516 19.3006 28.5348C19.4549 28.7179 19.4734 28.7105 19.5311 28.7105C19.5887 28.7105 19.6072 28.7179 19.7615 28.5348C19.9161 28.3515 20.1102 28.0069 20.3165 27.6163C20.5229 27.2257 20.7419 26.789 21.0813 26.3862C21.4208 25.9835 21.9771 25.5854 22.6561 25.5854C23.3351 25.5854 23.8914 25.9834 24.2308 26.3862C24.5702 26.7889 24.7892 27.2256 24.9956 27.6162C25.2021 28.0068 25.396 28.3514 25.5505 28.5346C25.7048 28.7177 25.7233 28.7104 25.781 28.7104C25.8386 28.7104 25.8571 28.7177 26.0114 28.5346C26.166 28.3513 26.3601 28.0067 26.5664 27.6161C26.7728 27.2255 26.9918 26.7888 27.3313 26.386C27.6707 25.9833 28.227 25.5853 28.906 25.5853C29.585 25.5853 30.1216 25.9075 30.5686 26.2692C30.7777 26.4385 30.9714 26.6245 31.1521 26.8178V11.7188H3.22266ZM34.4727 16.5407V30.239L35.2539 30.2364V31.8359H35.626C36.534 29.9889 38.4359 28.7109 40.625 28.7109C42.5257 28.7109 44.2097 29.6745 45.2148 31.1373V25.5859H46.7773V22.0435L44.018 17.9043L34.4727 16.5407ZM36.2835 18.4466L42.6087 19.2011L45.0306 22.6688V24.3031H36.2835V18.4465V18.4466ZM3.22266 26.284V28.7109H4.73994C4.53291 28.3698 4.34297 28.018 4.15107 27.6785C3.84121 27.13 3.52607 26.6212 3.22266 26.284ZM10.1562 27.3438C10.0986 27.3438 10.0801 27.3364 9.92578 27.5195C9.77119 27.7028 9.57715 28.0474 9.3708 28.438C9.32393 28.5269 9.27588 28.6184 9.22646 28.7109H11.0858C11.0365 28.6184 10.9885 28.5268 10.9416 28.438C10.7352 28.0474 10.5412 27.7028 10.3867 27.5196C10.2324 27.3365 10.2139 27.3438 10.1562 27.3438V27.3438ZM16.4062 27.3438C16.3486 27.3438 16.3301 27.3364 16.1758 27.5195C16.0212 27.7028 15.8271 28.0474 15.6208 28.438C15.5739 28.5269 15.5259 28.6184 15.4765 28.7109H17.3358C17.2865 28.6184 17.2385 28.5268 17.1916 28.438C16.9852 28.0474 16.7912 27.7028 16.6367 27.5196C16.4824 27.3365 16.4639 27.3438 16.4062 27.3438V27.3438ZM22.6562 27.3438C22.5986 27.3438 22.5801 27.3364 22.4258 27.5195C22.2712 27.7028 22.0771 28.0474 21.8708 28.438C21.8239 28.5269 21.7759 28.6184 21.7265 28.7109H23.5858C23.5365 28.6184 23.4885 28.5268 23.4416 28.438C23.2352 28.0474 23.0412 27.7028 22.8867 27.5196C22.7324 27.3365 22.7139 27.3438 22.6562 27.3438V27.3438ZM28.9062 27.3438C28.8486 27.3438 28.8301 27.3364 28.6758 27.5195C28.5212 27.7028 28.3271 28.0474 28.1208 28.438C28.0739 28.5269 28.0259 28.6184 27.9765 28.7109H30.4332C30.3965 28.6609 30.3609 28.6111 30.3229 28.561C30.0507 28.205 29.7401 27.8605 29.4631 27.6362C29.1861 27.4121 28.9639 27.3438 28.9062 27.3438ZM46.9727 27.3438V31.8359H48.3398V27.3438H46.9727ZM7.03125 30.2734C4.83037 30.2734 3.02734 32.0765 3.02734 34.2773C3.02734 36.4782 4.83037 38.2812 7.03125 38.2812C9.23213 38.2812 11.0352 36.4782 11.0352 34.2773C11.0352 32.0765 9.23213 30.2734 7.03125 30.2734ZM17.1875 30.2734C14.9866 30.2734 13.1836 32.0765 13.1836 34.2773C13.1836 36.4782 14.9866 38.2812 17.1875 38.2812C19.3884 38.2812 21.1914 36.4782 21.1914 34.2773C21.1914 32.0765 19.3884 30.2734 17.1875 30.2734ZM40.625 30.2734C38.4241 30.2734 36.6211 32.0765 36.6211 34.2773C36.6211 36.4782 38.4241 38.2812 40.625 38.2812C42.8259 38.2812 44.6289 36.4782 44.6289 34.2773C44.6289 32.0765 42.8259 30.2734 40.625 30.2734ZM1.66016 30.4688V31.8359H2.03223C2.27883 31.3355 2.59877 30.8747 2.98145 30.4688H1.66016ZM11.0811 30.4688C11.4637 30.8747 11.7837 31.3355 12.0303 31.8359H12.1885C12.4351 31.3355 12.755 30.8747 13.1377 30.4688H11.0811ZM21.2373 30.4688C21.62 30.8747 21.9399 31.3355 22.1865 31.8359H22.5586V30.4688H21.2373ZM33.4961 31.9998L24.3164 32.0286V34.9583L33.4961 34.9295V31.9998ZM7.03125 32.0312C8.28223 32.0312 9.27734 33.0264 9.27734 34.2773C9.27734 35.5283 8.28223 36.5234 7.03125 36.5234C5.78027 36.5234 4.78516 35.5283 4.78516 34.2773C4.78516 33.0264 5.78027 32.0312 7.03125 32.0312ZM17.1875 32.0312C18.4385 32.0312 19.4336 33.0264 19.4336 34.2773C19.4336 35.5283 18.4385 36.5234 17.1875 36.5234C15.9365 36.5234 14.9414 35.5283 14.9414 34.2773C14.9414 33.0264 15.9365 32.0312 17.1875 32.0312ZM40.625 32.0312C41.876 32.0312 42.8711 33.0264 42.8711 34.2773C42.8711 35.5283 41.876 36.5234 40.625 36.5234C39.374 36.5234 38.3789 35.5283 38.3789 34.2773C38.3789 33.0264 39.374 32.0312 40.625 32.0312Z" fill="#C68E27"/>
</svg>
